<svg xmlns="http://www.w3.org/2000/svg" xmlns:xlink="http://www.w3.org/1999/xlink" id="Layer_1" x="0" y="0" version="1.1" viewBox="0 0 38.6 33.8" xml:space="preserve" style="enable-background:new 0 0 38.6 33.8"><linearGradient id="SVGID_1_" x1="1.062" x2="48.051" y1="35.184" y2="-8.029" gradientTransform="matrix(1 0 0 -1 0 35.3023)" gradientUnits="userSpaceOnUse"><stop offset="0" style="stop-color:#f4f4f3"/><stop offset="1" style="stop-color:#a8a8a8"/></linearGradient><path style="fill:url(#SVGID_1_)" d="M3,0h32.6c1.7,0,3,1.4,3,3v27.8c0,1.7-1.4,3-3,3H3c-1.7,0-3-1.4-3-3V3C0,1.4,1.4,0,3,0z"/><linearGradient id="SVGID_00000029758218605588728530000014944440871404260500_" x1="31.263" x2="8.086" y1="36.381" y2="5.679" gradientTransform="matrix(1 0 0 -1 0 35.3023)" gradientUnits="userSpaceOnUse"><stop offset="0" style="stop-color:#fff"/><stop offset="1" style="stop-color:#a17ffd"/></linearGradient><path style="fill-rule:evenodd;clip-rule:evenodd;fill:url(#SVGID_00000029758218605588728530000014944440871404260500_)" d="M29.3,0v8.5h-0.9V0H29.3z M13.8,22.5c0,1.1-1,2.1-2.1,2.1H0v0.9h11v8.3h0.9v-8.3h-0.2c1.7,0,3-1.3,3-3v-1.4h9.9v-0.9h-9.9v-3.7v-0.9	V12h9.9v-0.9h-9.9v0c0-1.6-1.3-2.9-2.8-3V0H11v8H0v0.9h11.7c1.2,0,2.1,0.9,2.1,2.1v4.6H0v0.9h13.8V22.5z M29.3,25.6v8.3h-0.9v-8.3	H29.3z M24.9,16.6h13.7v-0.9H24.9V16.6z"/><linearGradient id="SVGID_00000065796826086864974690000001253683507096671363_" x1="36.685" x2="25.027" y1="22.456" y2="12.373" gradientTransform="matrix(1 0 0 -1 0 35.3023)" gradientUnits="userSpaceOnUse"><stop offset="0" style="stop-color:#fff"/><stop offset="1" style="stop-color:#a685fe"/></linearGradient><path style="fill:url(#SVGID_00000065796826086864974690000001253683507096671363_)" d="M38.6,25.4v-0.9H27.1	c-1.2,0-2.1-0.9-2.1-2.1V10.9c0-1.1,1-2.1,2.1-2.1h11.6V8H27.1c-1.7,0-3,1.3-3,3v11.4c0,1.6,1.4,3,3,3H38.6z"/></svg>